# Blender v3.1.2 OBJ File: ''
# www.blender.org
mtllib mixed_tris_and_quads.mtl
o Plane
v 1.000000 1.000000 0.000000
v -1.000000 1.000000 0.000000
v 0.964797 -1.262994 0.000000
v -0.964798 -0.737006 0.000000
v -1.406157 -5.070510 0.000000
v -2.349928 -3.307190 0.000000
v -7.152459 -4.736800 0.000000
v -5.977506 -3.118316 0.000000
v -8.655416 -1.268964 0.000000
v -6.695537 -0.870371 0.000000
v -8.751596 1.487187 0.000000
v -6.762665 1.697318 0.000000
v -9.051008 3.221514 0.000000
v -7.051164 3.196491 0.000000
v -8.500851 5.169608 0.000000
v -7.078734 3.763341 0.000000
v -5.200817 6.050391 0.000000
v -5.022266 4.058376 0.000000
v -1.408341 5.630304 0.000000
v -0.061431 4.151846 0.000000
v -1.267519 9.087134 0.000000
v 0.189686 7.717260 0.000000
v 4.385334 9.939913 0.000000
v 3.986399 7.980105 0.000000
v 7.206606 8.247672 0.000000
v 5.509121 7.190063 0.000000
v 7.303906 4.190149 0.000000
v 5.947470 2.720431 0.000000
v 10.556217 4.240014 0.000000
v 9.185674 2.783442 0.000000
v 10.728903 6.800423 0.000000
v 8.730792 6.713547 0.000000
vt 0.000000 0.000000
vt 1.000000 0.000000
vt 1.000000 1.000000
vt 0.000000 1.000000
vt 1.000000 1.000000
vt 0.000000 1.000000
vt 1.000000 1.000000
vt 0.000000 1.000000
vt 1.000000 1.000000
vt 0.000000 1.000000
vt 1.000000 1.000000
vt 0.000000 1.000000
vt 1.000000 1.000000
vt 0.000000 1.000000
vt 1.000000 1.000000
vt 0.000000 1.000000
vt 1.000000 1.000000
vt 0.000000 1.000000
vt 1.000000 1.000000
vt 0.000000 1.000000
vt 1.000000 1.000000
vt 0.000000 1.000000
vt 1.000000 1.000000
vt 0.000000 1.000000
vt 1.000000 1.000000
vt 0.000000 1.000000
vt 1.000000 1.000000
vt 0.000000 1.000000
vt 1.000000 1.000000
vt 0.000000 1.000000
vt 1.000000 1.000000
vt 0.000000 1.000000
vn 0.0000 0.0000 1.0000
vn 0.0000 0.0000 -1.0000
usemtl None
s off
f 1/1/1 2/2/1 4/3/1 3/4/1
f 3/4/1 4/3/1 6/5/1 5/6/1
f 5/6/1 6/5/1 8/7/1 7/8/1
f 7/8/1 8/7/1 10/9/1 9/10/1
f 9/10/1 10/9/1 12/11/1 11/12/1
f 11/12/1 12/11/1 14/13/1 13/14/1
f 13/14/1 14/13/1 16/15/1 15/16/1
f 15/16/1 16/15/1 18/17/1 17/18/1
f 17/18/1 18/17/1 20/19/1 19/20/1
f 19/20/1 20/19/1 22/21/1 21/22/1
f 21/22/1 22/21/1 24/23/1 23/24/1
f 23/24/1 24/23/1 26/25/1 25/26/1
f 25/26/1 26/25/1 28/27/1 27/28/1
f 27/28/1 28/27/1 30/29/1 29/30/1
f 29/30/2 30/29/2 32/31/2 31/32/2
